<mxfile host="app.diagrams.net" modified="2021-12-19T06:05:17.453Z" agent="5.0 (Windows NT 10.0; Win64; x64) AppleWebKit/537.36 (KHTML, like Gecko) Chrome/96.0.4664.55 Safari/537.36 Edg/96.0.1054.43" etag="Nj_C14MTlIuToTrs2n6a" version="15.9.3" type="github">
  <diagram id="G_54asUs8zMmyKIcIyjc" name="Page-1">
    <mxGraphModel dx="1516" dy="1183" grid="0" gridSize="10" guides="1" tooltips="1" connect="1" arrows="1" fold="1" page="0" pageScale="1" pageWidth="827" pageHeight="1169" math="0" shadow="0">
      <root>
        <object label="" test="ad" id="0">
          <mxCell />
        </object>
        <mxCell id="1" parent="0" />
        <mxCell id="W3C3EGhSkc6i2sMWz-Zh-68" value="用户" style="swimlane;whiteSpace=wrap;rounded=0;" vertex="1" parent="1">
          <mxGeometry x="20" y="20" width="280" height="570" as="geometry" />
        </mxCell>
        <mxCell id="W3C3EGhSkc6i2sMWz-Zh-152" style="edgeStyle=orthogonalEdgeStyle;orthogonalLoop=1;jettySize=auto;html=1;exitX=0.5;exitY=1;exitDx=0;exitDy=0;" edge="1" parent="W3C3EGhSkc6i2sMWz-Zh-68" source="W3C3EGhSkc6i2sMWz-Zh-69" target="W3C3EGhSkc6i2sMWz-Zh-133">
          <mxGeometry relative="1" as="geometry" />
        </mxCell>
        <mxCell id="W3C3EGhSkc6i2sMWz-Zh-69" value="" style="ellipse;shape=startState;fillColor=#000000;strokeColor=#ff0000;rounded=0;" vertex="1" parent="W3C3EGhSkc6i2sMWz-Zh-68">
          <mxGeometry x="100" y="40" width="30" height="30" as="geometry" />
        </mxCell>
        <mxCell id="W3C3EGhSkc6i2sMWz-Zh-153" style="edgeStyle=orthogonalEdgeStyle;orthogonalLoop=1;jettySize=auto;html=1;exitX=0.5;exitY=1;exitDx=0;exitDy=0;entryX=0.5;entryY=0;entryDx=0;entryDy=0;" edge="1" parent="W3C3EGhSkc6i2sMWz-Zh-68" source="W3C3EGhSkc6i2sMWz-Zh-133" target="W3C3EGhSkc6i2sMWz-Zh-136">
          <mxGeometry relative="1" as="geometry" />
        </mxCell>
        <mxCell id="W3C3EGhSkc6i2sMWz-Zh-133" value="注册页面" style="html=1;align=center;verticalAlign=top;rounded=1;absoluteArcSize=1;arcSize=140;dashed=0;" vertex="1" parent="W3C3EGhSkc6i2sMWz-Zh-68">
          <mxGeometry x="45" y="117" width="140" height="40" as="geometry" />
        </mxCell>
        <mxCell id="W3C3EGhSkc6i2sMWz-Zh-136" value="填写信息" style="html=1;align=center;verticalAlign=top;rounded=1;absoluteArcSize=1;arcSize=140;dashed=0;" vertex="1" parent="W3C3EGhSkc6i2sMWz-Zh-68">
          <mxGeometry x="45" y="197" width="140" height="40" as="geometry" />
        </mxCell>
        <mxCell id="W3C3EGhSkc6i2sMWz-Zh-137" value="注册成功页面" style="html=1;align=center;verticalAlign=top;rounded=1;absoluteArcSize=1;arcSize=140;dashed=0;" vertex="1" parent="W3C3EGhSkc6i2sMWz-Zh-68">
          <mxGeometry x="39" y="283" width="140" height="40" as="geometry" />
        </mxCell>
        <mxCell id="W3C3EGhSkc6i2sMWz-Zh-138" value="" style="ellipse;html=1;shape=endState;fillColor=#000000;strokeColor=#000000;" vertex="1" parent="W3C3EGhSkc6i2sMWz-Zh-68">
          <mxGeometry x="94" y="345" width="30" height="32" as="geometry" />
        </mxCell>
        <mxCell id="W3C3EGhSkc6i2sMWz-Zh-77" value="商城" style="swimlane;whiteSpace=wrap;rounded=0;" vertex="1" parent="1">
          <mxGeometry x="300" y="20" width="280" height="570" as="geometry" />
        </mxCell>
        <mxCell id="W3C3EGhSkc6i2sMWz-Zh-139" value="信息是否正确" style="rhombus;" vertex="1" parent="W3C3EGhSkc6i2sMWz-Zh-77">
          <mxGeometry x="109" y="184" width="96" height="49" as="geometry" />
        </mxCell>
        <mxCell id="W3C3EGhSkc6i2sMWz-Zh-132" value="Action1" style="html=1;align=center;verticalAlign=top;rounded=1;absoluteArcSize=1;arcSize=140;dashed=0;" vertex="1" parent="1">
          <mxGeometry x="10" y="-103" width="140" height="40" as="geometry" />
        </mxCell>
        <mxCell id="W3C3EGhSkc6i2sMWz-Zh-154" style="edgeStyle=orthogonalEdgeStyle;orthogonalLoop=1;jettySize=auto;html=1;exitX=1;exitY=0.25;exitDx=0;exitDy=0;" edge="1" parent="1" source="W3C3EGhSkc6i2sMWz-Zh-136">
          <mxGeometry relative="1" as="geometry">
            <mxPoint x="398.8571428571429" y="226.71428571428578" as="targetPoint" />
          </mxGeometry>
        </mxCell>
        <mxCell id="W3C3EGhSkc6i2sMWz-Zh-156" style="edgeStyle=orthogonalEdgeStyle;orthogonalLoop=1;jettySize=auto;html=1;exitX=0.5;exitY=0;exitDx=0;exitDy=0;entryX=1;entryY=0.5;entryDx=0;entryDy=0;" edge="1" parent="1" source="W3C3EGhSkc6i2sMWz-Zh-139" target="W3C3EGhSkc6i2sMWz-Zh-133">
          <mxGeometry relative="1" as="geometry" />
        </mxCell>
        <mxCell id="W3C3EGhSkc6i2sMWz-Zh-157" style="edgeStyle=orthogonalEdgeStyle;orthogonalLoop=1;jettySize=auto;html=1;exitX=0.5;exitY=1;exitDx=0;exitDy=0;entryX=1;entryY=0.5;entryDx=0;entryDy=0;" edge="1" parent="1" source="W3C3EGhSkc6i2sMWz-Zh-139" target="W3C3EGhSkc6i2sMWz-Zh-137">
          <mxGeometry relative="1" as="geometry">
            <Array as="points">
              <mxPoint x="457" y="323" />
            </Array>
          </mxGeometry>
        </mxCell>
        <mxCell id="W3C3EGhSkc6i2sMWz-Zh-159" value="是" style="edgeLabel;html=1;align=center;verticalAlign=middle;resizable=0;points=[];" vertex="1" connectable="0" parent="W3C3EGhSkc6i2sMWz-Zh-157">
          <mxGeometry x="-0.1098" y="5" relative="1" as="geometry">
            <mxPoint as="offset" />
          </mxGeometry>
        </mxCell>
        <mxCell id="W3C3EGhSkc6i2sMWz-Zh-158" value="否" style="text;html=1;align=center;verticalAlign=middle;resizable=0;points=[];autosize=1;strokeColor=none;fillColor=none;" vertex="1" parent="1">
          <mxGeometry x="399" y="159" width="22" height="18" as="geometry" />
        </mxCell>
        <mxCell id="W3C3EGhSkc6i2sMWz-Zh-160" style="edgeStyle=orthogonalEdgeStyle;orthogonalLoop=1;jettySize=auto;html=1;exitX=0.5;exitY=1;exitDx=0;exitDy=0;" edge="1" parent="1" source="W3C3EGhSkc6i2sMWz-Zh-137">
          <mxGeometry relative="1" as="geometry">
            <mxPoint x="129.57142857142867" y="368.14285714285734" as="targetPoint" />
          </mxGeometry>
        </mxCell>
      </root>
    </mxGraphModel>
  </diagram>
</mxfile>
